<svg xmlns="http://www.w3.org/2000/svg" xmlns:xlink="http://www.w3.org/1999/xlink" viewBox="0 0 88.5 172.58"><defs><style>.cls-1{fill:none;}.cls-2{clip-path:url(#clip-path);}.cls-3{fill:#283148;}.cls-4{fill:#5cd8ff;}.cls-5{fill:#fab929;}</style><clipPath id="clip-path" transform="translate(-93.21 -51.17)"><rect class="cls-1" width="274.91" height="274.91"/></clipPath></defs><title>icon-color</title><g id="Layer_2" data-name="Layer 2"><g id="Layer_1-2" data-name="Layer 1"><g class="cls-2"><path class="cls-3" d="M122.94,223.75V129.19a1.33,1.33,0,0,1,2-1.13l26.43,16.46a1.33,1.33,0,0,1,.63,1.13v78.1Z" transform="translate(-93.21 -51.17)"/><path class="cls-4" d="M121.9,109.34a21.89,21.89,0,0,1,0-30.92,21.86,21.86,0,1,1,30.92,30.92A21.9,21.9,0,0,1,121.9,109.34Z" transform="translate(-93.21 -51.17)"/><path class="cls-5" d="M168.5,64.41a43.13,43.13,0,0,0-30.75-13.24h-.29A44.19,44.19,0,0,0,106.1,64.39a43.63,43.63,0,0,0-12.89,31,44.82,44.82,0,0,0,11,29.33,4.41,4.41,0,0,0,6.69-5.76c-12.44-14.32-11.83-35.11,1.41-48.35A35.41,35.41,0,0,1,137.45,60h.25a34.34,34.34,0,0,1,24.49,10.6l.09.09a34.33,34.33,0,0,1,10.6,24.49,35.35,35.35,0,0,1-9,23.64,4.41,4.41,0,0,0,6.63,5.82,44.13,44.13,0,0,0,11.22-29.53A43.09,43.09,0,0,0,168.5,64.41Z" transform="translate(-93.21 -51.17)"/></g></g></g></svg>